<svg width="20" height="20" viewBox="0 0 20 20" fill="none" xmlns="http://www.w3.org/2000/svg">
<path fill-rule="evenodd" clip-rule="evenodd" d="M10 4.54543C8.11299 4.54543 5.54275 4.7072 3.91058 4.82616C3.36854 4.86566 2.94874 5.29474 2.94874 5.81883V6.41105L9.48117 9.84223C9.80385 10.0117 10.1962 10.0117 10.5189 9.84222L17.0513 6.41105V5.81883C17.0513 5.29474 16.6315 4.86566 16.0895 4.82616C14.4573 4.7072 11.887 4.54543 10 4.54543ZM17.0513 7.79767L11.1415 10.9018C10.4316 11.2747 9.56844 11.2747 8.85855 10.9018L2.94874 7.79767V14.1811C2.94874 14.7052 3.36854 15.1343 3.91058 15.1738C5.54275 15.2928 8.11299 15.4545 10 15.4545C11.887 15.4545 14.4573 15.2928 16.0895 15.1738C16.6315 15.1343 17.0513 14.7052 17.0513 14.1811V7.79767ZM3.81205 3.61762C5.4452 3.4986 8.05892 3.33331 10 3.33331C11.9411 3.33331 14.5548 3.4986 16.188 3.61762C17.4085 3.70657 18.3334 4.67155 18.3334 5.81883V14.1811C18.3334 15.3284 17.4085 16.2934 16.188 16.3823C14.5548 16.5014 11.9411 16.6666 10 16.6666C8.05892 16.6666 5.4452 16.5014 3.81205 16.3823C2.59154 16.2934 1.66669 15.3284 1.66669 14.1811V5.81883C1.66669 4.67155 2.59154 3.70657 3.81205 3.61762Z" fill="white"/>
</svg>
