<svg display="none" xmlns="http://www.w3.org/2000/svg" width="36" height="36">
  <symbol id="facebook" width="36" height="36" viewBox="0 0 36 36">
    <path d="M36 18C36 8.05887 27.9411 0 18 0C8.05887 0 0 8.05887 0 18C0 26.9842 6.5823 34.431 15.1875 35.7813V23.2031H10.6172V18H15.1875V14.0344C15.1875 9.52313 17.8748 7.03125 21.9864 7.03125C23.9551 7.03125 26.0156 7.38281 26.0156 7.38281V11.8125H23.7459C21.51 11.8125 20.8125 13.2001 20.8125 14.625V18H25.8047L25.0066 23.2031H20.8125V35.7813C29.4177 34.431 36 26.9842 36 18Z" fill="#5B5959"/>
    <path d="M25.0066 23.2031L25.8047 18H20.8125V14.625C20.8125 13.2015 21.51 11.8125 23.7459 11.8125H26.0156V7.38281C26.0156 7.38281 23.9558 7.03125 21.9864 7.03125C17.8748 7.03125 15.1875 9.52313 15.1875 14.0344V18H10.6172V23.2031H15.1875V35.7813C17.0512 36.0729 18.9488 36.0729 20.8125 35.7813V23.2031H25.0066Z" fill="white"/>
  </symbol>

  <symbol id="google" width="36" height="36" viewBox="0 0 36 36">
    <path d="M35.649 18.4146C35.649 17.191 35.5498 15.9608 35.3382 14.7571H18.36V21.6886H28.0826C27.6791 23.9241 26.3828 25.9017 24.4846 27.1583V31.6558H30.2851C33.6913 28.5208 35.649 23.891 35.649 18.4146Z" fill="#5B5959"/>
    <path d="M18.36 36.0012C23.2147 36.0012 27.3087 34.4073 30.2916 31.6558L24.4912 27.1583C22.8773 28.2562 20.7939 28.878 18.3666 28.878C13.6707 28.878 9.68903 25.7099 8.26041 21.4504H2.27473V26.0869C5.3304 32.1651 11.5542 36.0012 18.36 36.0012Z" fill="#5B5959"/>
    <path d="M8.25381 21.4504C7.49981 19.2149 7.49981 16.7942 8.25381 14.5587V9.92224H2.27475C-0.27825 15.0084 -0.27825 21.0007 2.27475 26.0869L8.25381 21.4504Z" fill="#5B5959"/>
    <path d="M18.36 7.12449C20.9262 7.08481 23.4065 8.05045 25.265 9.823L30.4041 4.68392C27.15 1.62826 22.831 -0.051699 18.36 0.001213C11.5542 0.001213 5.3304 3.83733 2.27473 9.92221L8.25379 14.5586C9.6758 10.2926 13.664 7.12449 18.36 7.12449Z" fill="#5B5959"/>
  </symbol>

  <symbol id="telegram" width="36" height="36" viewBox="0 0 36 36">
    <path class="path-circle" d="M18 36C27.9411 36 36 27.9411 36 18C36 8.05887 27.9411 0 18 0C8.05887 0 0 8.05887 0 18C0 27.9411 8.05887 36 18 36Z" fill="#5B5959"/>
    <path class="path-icon" fill-rule="evenodd" clip-rule="evenodd" d="M8.14781 17.81C13.3952 15.5238 16.8942 14.0166 18.645 13.2884C23.6438 11.2092 24.6825 10.8481 25.3595 10.8361C25.5084 10.8335 25.8414 10.8704 26.057 11.0454C26.2391 11.1932 26.2892 11.3928 26.3132 11.5329C26.3372 11.673 26.367 11.9921 26.3433 12.2415C26.0724 15.0877 24.9003 21.9947 24.304 25.1825C24.0517 26.5314 23.5548 26.9837 23.0738 27.0279C22.0286 27.1241 21.2348 26.3371 20.2224 25.6735C18.6382 24.635 17.7432 23.9886 16.2054 22.9752C14.4282 21.8041 15.5803 21.1604 16.5931 20.1085C16.8581 19.8332 21.4637 15.644 21.5529 15.264C21.564 15.2165 21.5744 15.0393 21.4691 14.9458C21.3639 14.8522 21.2085 14.8842 21.0964 14.9097C20.9375 14.9457 18.4067 16.6185 13.5039 19.928C12.7856 20.4213 12.1349 20.6616 11.5519 20.649C10.9092 20.6352 9.67292 20.2857 8.75388 19.9869C7.62662 19.6205 6.73071 19.4268 6.80872 18.8045C6.84936 18.4803 7.29572 18.1488 8.14781 17.81Z" fill="white"/>
  </symbol>

  <symbol id="telegram2" width="20" height="20" viewBox="0 0 36 36">
    <path class="path-circle" d="M18 36C27.9411 36 36 27.9411 36 18C36 8.05887 27.9411 0 18 0C8.05887 0 0 8.05887 0 18C0 27.9411 8.05887 36 18 36Z" fill="white"/>
    <path class="path-icon" fill-rule="evenodd" clip-rule="evenodd" d="M8.14781 17.81C13.3952 15.5238 16.8942 14.0166 18.645 13.2884C23.6438 11.2092 24.6825 10.8481 25.3595 10.8361C25.5084 10.8335 25.8414 10.8704 26.057 11.0454C26.2391 11.1932 26.2892 11.3928 26.3132 11.5329C26.3372 11.673 26.367 11.9921 26.3433 12.2415C26.0724 15.0877 24.9003 21.9947 24.304 25.1825C24.0517 26.5314 23.5548 26.9837 23.0738 27.0279C22.0286 27.1241 21.2348 26.3371 20.2224 25.6735C18.6382 24.635 17.7432 23.9886 16.2054 22.9752C14.4282 21.8041 15.5803 21.1604 16.5931 20.1085C16.8581 19.8332 21.4637 15.644 21.5529 15.264C21.564 15.2165 21.5744 15.0393 21.4691 14.9458C21.3639 14.8522 21.2085 14.8842 21.0964 14.9097C20.9375 14.9457 18.4067 16.6185 13.5039 19.928C12.7856 20.4213 12.1349 20.6616 11.5519 20.649C10.9092 20.6352 9.67292 20.2857 8.75388 19.9869C7.62662 19.6205 6.73071 19.4268 6.80872 18.8045C6.84936 18.4803 7.29572 18.1488 8.14781 17.81Z" fill="#000000"/>
  </symbol>

  <symbol id="twiter" width="36" height="30" viewBox="0 0 36 30">
    <path d="M11.3213 29.626C24.9062 29.626 32.3366 18.371 32.3366 8.61066C32.3366 8.29098 32.3366 7.97274 32.315 7.65594C33.7606 6.61037 35.0084 5.31576 36 3.83274C34.6521 4.43034 33.2221 4.82207 31.7578 4.99482C33.2997 4.07185 34.4537 2.61999 35.005 0.909538C33.5551 1.76995 31.969 2.37628 30.3149 2.70234C29.2013 1.5182 27.7284 0.7341 26.1243 0.471365C24.5201 0.208629 22.8741 0.48191 21.441 1.24892C20.0078 2.01593 18.8673 3.2339 18.1961 4.71436C17.5249 6.19482 17.3603 7.85524 17.7278 9.43866C14.7913 9.29135 11.9186 8.52821 9.29618 7.19875C6.67373 5.86928 4.36015 4.00323 2.5056 1.7217C1.56109 3.34769 1.27181 5.27254 1.69665 7.10433C2.12149 8.93612 3.22851 10.5371 4.79232 11.5814C3.61685 11.5469 2.46697 11.2298 1.44 10.6569V10.7505C1.44047 12.4558 2.03078 14.1084 3.11081 15.428C4.19084 16.7477 5.69409 17.6532 7.3656 17.9908C6.27822 18.2874 5.13731 18.3308 4.03056 18.1175C4.50272 19.585 5.42164 20.8683 6.65886 21.7879C7.89607 22.7076 9.38974 23.2177 10.931 23.2468C9.39966 24.4505 7.64597 25.3405 5.77031 25.8658C3.89465 26.3911 1.93382 26.5415 0 26.3083C3.37775 28.4758 7.30789 29.6255 11.3213 29.6203" fill="#5B5959"/>
  </symbol>

  <symbol id="vk" width="36" height="36" viewBox="0 0 36 36">
    <path d="M0 17.28C0 9.1341 0 5.06119 2.5306 2.5306C5.06119 0 9.1341 0 17.28 0H18.72C26.8659 0 30.9388 0 33.4694 2.5306C36 5.06119 36 9.1341 36 17.28V18.72C36 26.8659 36 30.9388 33.4694 33.4694C30.9388 36 26.8659 36 18.72 36H17.28C9.1341 36 5.06119 36 2.5306 33.4694C0 30.9388 0 26.8659 0 18.72V17.28Z" fill="#5B5959"/>
    <path d="M19.155 25.9351C10.95 25.9351 6.27007 20.3101 6.07507 10.9501H10.1851C10.3201 17.8201 13.35 20.7301 15.75 21.3301V10.9501H19.6201V16.8751C21.9901 16.6201 24.4798 13.9201 25.3198 10.9501H29.1899C28.5449 14.6101 25.8449 17.3101 23.9249 18.4201C25.8449 19.3201 28.9201 21.6751 30.0901 25.9351H25.8299C24.9149 23.0851 22.6351 20.8801 19.6201 20.5801V25.9351H19.155Z" fill="white"/>
  </symbol>

  <symbol id="yandex" width="36" height="36" viewBox="0 0 32 32">
    <path d="M21.88,2h-4c-4,0-8.07,3-8.07,9.62a8.33,8.33,0,0,0,4.14,7.66L9,28.13A1.25,1.25,0,0,0,9,29.4a1.21,1.21,0,0,0,1,.6h2.49a1.24,1.24,0,0,0,1.2-.75l4.59-9h.34v8.62A1.14,1.14,0,0,0,19.82,30H22a1.12,1.12,0,0,0,1.16-1.06V3.22A1.19,1.19,0,0,0,22,2ZM18.7,16.28h-.59c-2.3,0-3.66-1.87-3.66-5,0-3.9,1.73-5.29,3.34-5.29h.94Z" style="fill:#5B5959"/>
  </symbol>

  <symbol id="mail" viewBox="0 0 20 20">
    <path fill-rule="evenodd" clip-rule="evenodd" d="M10 4.54543C8.11299 4.54543 5.54275 4.7072 3.91058 4.82616C3.36854 4.86566 2.94874 5.29474 2.94874 5.81883V6.41105L9.48117 9.84223C9.80385 10.0117 10.1962 10.0117 10.5189 9.84222L17.0513 6.41105V5.81883C17.0513 5.29474 16.6315 4.86566 16.0895 4.82616C14.4573 4.7072 11.887 4.54543 10 4.54543ZM17.0513 7.79767L11.1415 10.9018C10.4316 11.2747 9.56844 11.2747 8.85855 10.9018L2.94874 7.79767V14.1811C2.94874 14.7052 3.36854 15.1343 3.91058 15.1738C5.54275 15.2928 8.11299 15.4545 10 15.4545C11.887 15.4545 14.4573 15.2928 16.0895 15.1738C16.6315 15.1343 17.0513 14.7052 17.0513 14.1811V7.79767ZM3.81205 3.61762C5.4452 3.4986 8.05892 3.33331 10 3.33331C11.9411 3.33331 14.5548 3.4986 16.188 3.61762C17.4085 3.70657 18.3334 4.67155 18.3334 5.81883V14.1811C18.3334 15.3284 17.4085 16.2934 16.188 16.3823C14.5548 16.5014 11.9411 16.6666 10 16.6666C8.05892 16.6666 5.4452 16.5014 3.81205 16.3823C2.59154 16.2934 1.66669 15.3284 1.66669 14.1811V5.81883C1.66669 4.67155 2.59154 3.70657 3.81205 3.61762Z" fill="white"/>
  </symbol>
</svg>